<?xml version="1.0" encoding="UTF-8" standalone="no"?>
<svg
   xmlns:dc="http://purl.org/dc/elements/1.1/"
   xmlns:cc="http://creativecommons.org/ns#"
   xmlns:rdf="http://www.w3.org/1999/02/22-rdf-syntax-ns#"
   xmlns:svg="http://www.w3.org/2000/svg"
   xmlns="http://www.w3.org/2000/svg"
   xmlns:sodipodi="http://sodipodi.sourceforge.net/DTD/sodipodi-0.dtd"
   xmlns:inkscape="http://www.inkscape.org/namespaces/inkscape"
   version="1.1"
   id="svg10"
   xml:space="preserve"
   width="1365.3333"
   height="922.8692"
   viewBox="0 0 1365.3333 922.8692"
   sodipodi:docname="Canonical_Microcircuit.svg"
   inkscape:version="1.0.1 (c497b03c, 2020-09-10)"><metadata
     id="metadata16"><rdf:RDF><cc:Work
         rdf:about=""><dc:format>image/svg+xml</dc:format><dc:type
           rdf:resource="http://purl.org/dc/dcmitype/StillImage" /><dc:title></dc:title></cc:Work></rdf:RDF></metadata><defs
     id="defs14"><clipPath
       clipPathUnits="userSpaceOnUse"
       id="clipPath28"><path
         d="M 0,0 H 1024 V 768 H 0 Z"
         id="path26" /></clipPath><clipPath
       clipPathUnits="userSpaceOnUse"
       id="clipPath42"><path
         d="m 415.4186,369.5085 h 60.07115 v 60.07115 H 415.4186 Z"
         id="path40" /></clipPath><clipPath
       clipPathUnits="userSpaceOnUse"
       id="clipPath56"><path
         d="M 0,0 H 1024 V 768 H 0 Z"
         id="path54" /></clipPath><clipPath
       clipPathUnits="userSpaceOnUse"
       id="clipPath68"><path
         d="m 415.4186,516.3499 h 60.07115 v 60.07115 H 415.4186 Z"
         id="path66" /></clipPath><clipPath
       clipPathUnits="userSpaceOnUse"
       id="clipPath88"><path
         d="M 0,0 H 1024 V 768 H 0 Z"
         id="path86" /></clipPath><clipPath
       clipPathUnits="userSpaceOnUse"
       id="clipPath100"><path
         d="m 415.4186,239.6339 h 60.07115 v 60.07115 H 415.4186 Z"
         id="path98" /></clipPath><clipPath
       clipPathUnits="userSpaceOnUse"
       id="clipPath114"><path
         d="M 0,0 H 1024 V 768 H 0 Z"
         id="path112" /></clipPath><clipPath
       clipPathUnits="userSpaceOnUse"
       id="clipPath128"><path
         d="m 375.8193,206.6672 h 60.07115 v 60.07115 H 375.8193 Z"
         id="path126" /></clipPath><clipPath
       clipPathUnits="userSpaceOnUse"
       id="clipPath142"><path
         d="M 0,0 H 1024 V 768 H 0 Z"
         id="path140" /></clipPath><clipPath
       clipPathUnits="userSpaceOnUse"
       id="clipPath156"><path
         d="m 375.8193,483.3832 h 60.07115 v 60.07115 H 375.8193 Z"
         id="path154" /></clipPath><clipPath
       clipPathUnits="userSpaceOnUse"
       id="clipPath170"><path
         d="M 0,0 H 1024 V 768 H 0 Z"
         id="path168" /></clipPath><clipPath
       clipPathUnits="userSpaceOnUse"
       id="clipPath184"><path
         d="m 375.8193,343.5282 h 60.07115 v 60.07115 H 375.8193 Z"
         id="path182" /></clipPath><clipPath
       clipPathUnits="userSpaceOnUse"
       id="clipPath198"><path
         d="M 0,0 H 1024 V 768 H 0 Z"
         id="path196" /></clipPath><clipPath
       clipPathUnits="userSpaceOnUse"
       id="clipPath212"><path
         d="M 0,0 H 1024 V 768 H 0 Z"
         id="path210" /></clipPath><clipPath
       clipPathUnits="userSpaceOnUse"
       id="clipPath218"><path
         d="m 395,394 h 22 v 90 h -22 z"
         id="path216" /></clipPath><clipPath
       clipPathUnits="userSpaceOnUse"
       id="clipPath222"><path
         d="M 394,116 H 816 V 485 H 394 Z"
         id="path220" /></clipPath><clipPath
       clipPathUnits="userSpaceOnUse"
       id="clipPath246"><path
         d="M 0,0 H 1024 V 768 H 0 Z"
         id="path244" /></clipPath><clipPath
       clipPathUnits="userSpaceOnUse"
       id="clipPath252"><path
         d="m 434,416 h 48 v 89 h -48 z"
         id="path250" /></clipPath><clipPath
       clipPathUnits="userSpaceOnUse"
       id="clipPath256"><path
         d="M 432,160 H 906 V 508 H 432 Z"
         id="path254" /></clipPath><clipPath
       clipPathUnits="userSpaceOnUse"
       id="clipPath280"><path
         d="M 0,0 H 1024 V 768 H 0 Z"
         id="path278" /></clipPath><clipPath
       clipPathUnits="userSpaceOnUse"
       id="clipPath286"><path
         d="m 304,239 h 81 v 279 h -81 z"
         id="path284" /></clipPath><clipPath
       clipPathUnits="userSpaceOnUse"
       id="clipPath290"><path
         d="M 315,0 H 697 V 512 H 315 Z"
         id="path288" /></clipPath><clipPath
       clipPathUnits="userSpaceOnUse"
       id="clipPath324"><path
         d="M 0,0 H 1024 V 768 H 0 Z"
         id="path322" /></clipPath><clipPath
       clipPathUnits="userSpaceOnUse"
       id="clipPath330"><path
         d="m 437,285 h 41 v 76 h -41 z"
         id="path328" /></clipPath><clipPath
       clipPathUnits="userSpaceOnUse"
       id="clipPath334"><path
         d="M 435,0 H 908 V 364 H 435 Z"
         id="path332" /></clipPath><clipPath
       clipPathUnits="userSpaceOnUse"
       id="clipPath358"><path
         d="M 0,0 H 1024 V 768 H 0 Z"
         id="path356" /></clipPath><clipPath
       clipPathUnits="userSpaceOnUse"
       id="clipPath364"><path
         d="m 396,255 h 22 v 90 h -22 z"
         id="path362" /></clipPath><clipPath
       clipPathUnits="userSpaceOnUse"
       id="clipPath368"><path
         d="M 395,0 H 818 V 346 H 395 Z"
         id="path366" /></clipPath><clipPath
       clipPathUnits="userSpaceOnUse"
       id="clipPath442"><path
         d="M 0,0 H 1024 V 768 H 0 Z"
         id="path440" /></clipPath><clipPath
       clipPathUnits="userSpaceOnUse"
       id="clipPath448"><path
         d="m 720,225 h 74 v 21 h -74 z"
         id="path446" /></clipPath><clipPath
       clipPathUnits="userSpaceOnUse"
       id="clipPath452"><path
         d="m 729,0 h 295 V 247 H 729 Z"
         id="path450" /></clipPath><clipPath
       clipPathUnits="userSpaceOnUse"
       id="clipPath476"><path
         d="M 0,0 H 1024 V 768 H 0 Z"
         id="path474" /></clipPath><clipPath
       clipPathUnits="userSpaceOnUse"
       id="clipPath482"><path
         d="m 720,126 h 74 v 22 h -74 z"
         id="path480" /></clipPath><clipPath
       clipPathUnits="userSpaceOnUse"
       id="clipPath486"><path
         d="m 729,0 h 295 V 149 H 729 Z"
         id="path484" /></clipPath></defs><sodipodi:namedview
     pagecolor="#ffffff"
     bordercolor="#666666"
     borderopacity="1"
     objecttolerance="10"
     gridtolerance="10"
     guidetolerance="10"
     inkscape:pageopacity="0"
     inkscape:pageshadow="2"
     inkscape:window-width="1527"
     inkscape:window-height="1057"
     id="namedview12"
     showgrid="false"
     fit-margin-top="0"
     fit-margin-left="0"
     fit-margin-right="0"
     fit-margin-bottom="0"
     inkscape:zoom="0.5112305"
     inkscape:cx="1029.8681"
     inkscape:cy="449.99049"
     inkscape:window-x="0"
     inkscape:window-y="23"
     inkscape:window-maximized="0"
     inkscape:current-layer="g22" /><g
     id="g18"
     inkscape:groupmode="layer"
     inkscape:label="Canonical_Microcircuit"
     transform="matrix(1.3333333,0,0,-1.3333333,0,961.99049)"><g
       id="g20" /><g
       id="g22"><g
         id="g24"
         clip-path="url(#clipPath28)"
         transform="matrix(1,0,0,0.90123947,0,29.340973)"><path
           d="M 0,768 H 1024 V 0 H 0 Z"
           style="fill:#ffffff;fill-opacity:1;fill-rule:nonzero;stroke:none"
           id="path30" /><g
           id="g32"
           transform="matrix(1,0,0,-1,415.4186,429.5797)"><path
             d="m 51.27394,8.797217 c 11.72962,11.729623 11.72962,30.747093 0,42.476723 -11.72963,11.72962 -30.7471,11.72962 -42.476723,0 -11.729623,-11.72963 -11.729623,-30.7471 0,-42.476723 11.729623,-11.729623 30.747093,-11.729623 42.476723,0 z"
             style="fill:none;stroke:#ee220c;stroke-width:3;stroke-linecap:butt;stroke-linejoin:miter;stroke-miterlimit:4;stroke-dasharray:none;stroke-opacity:1"
             id="path34" /></g></g></g><g
       id="g36"><g
         id="g38"
         clip-path="url(#clipPath42)"><g
           id="g44"
           transform="translate(434.6678,395.1255)"><text
             transform="scale(1,-1)"
             style="font-variant:normal;font-weight:500;font-size:12px;font-family:'Helvetica Neue';-inkscape-font-specification:HelveticaNeue-Medium;writing-mode:lr-tb;fill:#000000;fill-opacity:1;fill-rule:nonzero;stroke:none"
             id="text48"><tspan
               x="0 6.888 13.56 18.228001"
               y="0"
               sodipodi:role="line"
               id="tspan46">L4-I</tspan></text></g></g></g><g
       id="g50"><g
         id="g52"
         clip-path="url(#clipPath56)"><g
           id="g58"
           transform="matrix(1,0,0,-1,415.4186,576.4211)"><path
             d="m 51.27394,8.797217 c 11.72962,11.729623 11.72962,30.747093 0,42.476723 -11.72963,11.72962 -30.7471,11.72962 -42.476723,0 -11.729623,-11.72963 -11.729623,-30.7471 0,-42.476723 11.729623,-11.729623 30.747093,-11.729623 42.476723,0 z"
             style="fill:none;stroke:#ee220c;stroke-width:3;stroke-linecap:butt;stroke-linejoin:miter;stroke-miterlimit:4;stroke-dasharray:none;stroke-opacity:1"
             id="path60" /></g></g></g><g
       id="g62"><g
         id="g64"
         clip-path="url(#clipPath68)"><g
           id="g70"
           transform="translate(425.4398,547.3731)"><text
             transform="scale(1,-1)"
             style="font-variant:normal;font-weight:500;font-size:12px;font-family:'Helvetica Neue';-inkscape-font-specification:HelveticaNeue-Medium;writing-mode:lr-tb;fill:#000000;fill-opacity:1;fill-rule:nonzero;stroke:none"
             id="text74"><tspan
               x="0 6.888 13.56 17.784 24.455999 28.68 35.352001"
               y="0"
               sodipodi:role="line"
               id="tspan72">L1/2/3-</tspan></text></g><g
           id="g76"
           transform="translate(443.7818,532.3731)"><text
             transform="scale(1,-1)"
             style="font-variant:normal;font-weight:500;font-size:12px;font-family:'Helvetica Neue';-inkscape-font-specification:HelveticaNeue-Medium;writing-mode:lr-tb;fill:#000000;fill-opacity:1;fill-rule:nonzero;stroke:none"
             id="text80"><tspan
               x="0"
               y="0"
               id="tspan78">I</tspan></text></g></g></g><g
       id="g82"><g
         id="g84"
         clip-path="url(#clipPath88)"><g
           id="g90"
           transform="matrix(1,0,0,-1,415.4186,299.7051)"><path
             d="m 51.27394,8.797217 c 11.72962,11.729623 11.72962,30.747093 0,42.476723 -11.72963,11.72962 -30.7471,11.72962 -42.476723,0 -11.729623,-11.72963 -11.729623,-30.7471 0,-42.476723 11.729623,-11.729623 30.747093,-11.729623 42.476723,0 z"
             style="fill:none;stroke:#ee220c;stroke-width:3;stroke-linecap:butt;stroke-linejoin:miter;stroke-miterlimit:4;stroke-dasharray:none;stroke-opacity:1"
             id="path92" /></g></g></g><g
       id="g94"><g
         id="g96"
         clip-path="url(#clipPath100)"><g
           id="g102"
           transform="translate(429.2198,265.0321)"><text
             transform="scale(1,-1)"
             style="font-variant:normal;font-weight:500;font-size:12px;font-family:'Helvetica Neue';-inkscape-font-specification:HelveticaNeue-Medium;writing-mode:lr-tb;fill:#000000;fill-opacity:1;fill-rule:nonzero;stroke:none"
             id="text106"><tspan
               x="0 6.888 13.56 17.784 24.455999 29.124001"
               y="0"
               sodipodi:role="line"
               id="tspan104">L5/6-I</tspan></text></g></g></g><g
       id="g108"><g
         id="g110"
         clip-path="url(#clipPath114)"><path
           d="m 427.0932,257.9411 c 11.7296,-11.7296 11.7296,-30.7471 0,-42.4767 -11.7296,-11.7296 -30.7471,-11.7296 -42.4767,0 -11.7296,11.7296 -11.7296,30.7471 0,42.4767 11.7296,11.7296 30.7471,11.7296 42.4767,0 z"
           style="fill:#ffffff;fill-opacity:1;fill-rule:nonzero;stroke:none"
           id="path116" /><g
           id="g118"
           transform="matrix(1,0,0,-1,375.8193,266.7383)"><path
             d="m 51.27394,8.797217 c 11.72962,11.729623 11.72962,30.747093 0,42.476723 -11.72963,11.72962 -30.7471,11.72962 -42.476723,0 -11.729623,-11.72963 -11.729623,-30.7471 0,-42.476723 11.729623,-11.729623 30.747093,-11.729623 42.476723,0 z"
             style="fill:none;stroke:#000000;stroke-width:3;stroke-linecap:butt;stroke-linejoin:miter;stroke-miterlimit:4;stroke-dasharray:none;stroke-opacity:1"
             id="path120" /></g></g></g><g
       id="g122"><g
         id="g124"
         clip-path="url(#clipPath128)"><g
           id="g130"
           transform="translate(387.5085,232.0654)"><text
             transform="scale(1,-1)"
             style="font-variant:normal;font-weight:500;font-size:12px;font-family:'Helvetica Neue';-inkscape-font-specification:HelveticaNeue-Medium;writing-mode:lr-tb;fill:#000000;fill-opacity:1;fill-rule:nonzero;stroke:none"
             id="text134"><tspan
               x="0 6.888 13.56 17.784 24.455999 29.124001"
               y="0"
               sodipodi:role="line"
               id="tspan132">L5/6-E</tspan></text></g></g></g><g
       id="g136"><g
         id="g138"
         clip-path="url(#clipPath142)"><path
           d="m 427.0932,534.6571 c 11.7296,-11.7296 11.7296,-30.7471 0,-42.4767 -11.7296,-11.7296 -30.7471,-11.7296 -42.4767,0 -11.7296,11.7296 -11.7296,30.7471 0,42.4767 11.7296,11.7296 30.7471,11.7296 42.4767,0 z"
           style="fill:#ffffff;fill-opacity:1;fill-rule:nonzero;stroke:none"
           id="path144" /><g
           id="g146"
           transform="matrix(1,0,0,-1,375.8193,543.4543)"><path
             d="m 51.27394,8.797217 c 11.72962,11.729623 11.72962,30.747093 0,42.476723 -11.72963,11.72962 -30.7471,11.72962 -42.476723,0 -11.729623,-11.72963 -11.729623,-30.7471 0,-42.476723 11.729623,-11.729623 30.747093,-11.729623 42.476723,0 z"
             style="fill:none;stroke:#000000;stroke-width:3;stroke-linecap:butt;stroke-linejoin:miter;stroke-miterlimit:4;stroke-dasharray:none;stroke-opacity:1"
             id="path148" /></g></g></g><g
       id="g150"><g
         id="g152"
         clip-path="url(#clipPath156)"><g
           id="g158"
           transform="translate(387.5085,508.7813)"><text
             transform="scale(1,-1)"
             style="font-variant:normal;font-weight:500;font-size:12px;font-family:'Helvetica Neue';-inkscape-font-specification:HelveticaNeue-Medium;writing-mode:lr-tb;fill:#000000;fill-opacity:1;fill-rule:nonzero;stroke:none"
             id="text162"><tspan
               x="0 6.888 13.56 17.784 24.455999 29.124001"
               y="0"
               sodipodi:role="line"
               id="tspan160">L2/3-E</tspan></text></g></g></g><g
       id="g164"><g
         id="g166"
         clip-path="url(#clipPath170)"><path
           d="m 427.0932,394.8021 c 11.7296,-11.7296 11.7296,-30.7471 0,-42.4767 -11.7296,-11.7297 -30.7471,-11.7297 -42.4767,0 -11.7296,11.7296 -11.7296,30.7471 0,42.4767 11.7296,11.7296 30.7471,11.7296 42.4767,0 z"
           style="fill:#ffffff;fill-opacity:1;fill-rule:nonzero;stroke:none"
           id="path172" /><g
           id="g174"
           transform="matrix(1,0,0,-1,375.8193,403.5993)"><path
             d="m 51.27394,8.797217 c 11.72962,11.729623 11.72962,30.747093 0,42.476723 -11.72963,11.72962 -30.7471,11.72962 -42.476723,0 -11.729623,-11.72963 -11.729623,-30.7471 0,-42.476723 11.729623,-11.729623 30.747093,-11.729623 42.476723,0 z"
             style="fill:none;stroke:#000000;stroke-width:3;stroke-linecap:butt;stroke-linejoin:miter;stroke-miterlimit:4;stroke-dasharray:none;stroke-opacity:1"
             id="path176" /></g></g></g><g
       id="g178"><g
         id="g180"
         clip-path="url(#clipPath184)"><g
           id="g186"
           transform="translate(392.9565,369.1451)"><text
             transform="scale(1,-1)"
             style="font-variant:normal;font-weight:500;font-size:12px;font-family:'Helvetica Neue';-inkscape-font-specification:HelveticaNeue-Medium;writing-mode:lr-tb;fill:#000000;fill-opacity:1;fill-rule:nonzero;stroke:none"
             id="text190"><tspan
               x="0 6.888 13.56 18.228001"
               y="0"
               sodipodi:role="line"
               id="tspan188">L4-E</tspan></text></g></g></g><g
       id="g192"><g
         id="g194"
         clip-path="url(#clipPath198)"><g
           id="g200"
           transform="matrix(0,1,1,0,405.8548,545.258)"><path
             d="m 0,0 h 99.70745 2.50005"
             style="fill:none;stroke:#0076ba;stroke-width:5;stroke-linecap:butt;stroke-linejoin:miter;stroke-miterlimit:4;stroke-dasharray:none;stroke-opacity:1"
             id="path202" /></g><path
           d="m 416.0548,644.9654 -10.2,20.4 -10.2,-20.4 z"
           style="fill:#0076ba;fill-opacity:1;fill-rule:nonzero;stroke:none"
           id="path204" /></g></g><g
       id="g206"><g
         id="g208"
         clip-path="url(#clipPath212)"><g
           id="g214" /><g
           id="g238"><g
             clip-path="url(#clipPath218)"
             opacity="0.375"
             id="g236"><g
               id="g224" /><g
               id="g234"><g
                 clip-path="url(#clipPath222)"
                 id="g232"><g
                   transform="matrix(0,1,1,0,405.8548,404.4481)"
                   id="g228"><path
                     d="m 0,0 h 58.2404 2.5"
                     style="fill:none;stroke:#0076ba;stroke-width:5;stroke-linecap:butt;stroke-linejoin:miter;stroke-miterlimit:4;stroke-dasharray:none;stroke-opacity:1"
                     id="path226" /></g><path
                   d="m 416.0548,462.6885 -10.2,20.4 -10.2,-20.4 z"
                   style="fill:#0076ba;fill-opacity:1;fill-rule:nonzero;stroke:none"
                   id="path230" /></g></g></g></g></g></g><g
       id="g240"><g
         id="g242"
         clip-path="url(#clipPath246)"><g
           id="g248" /><g
           id="g272"><g
             clip-path="url(#clipPath252)"
             opacity="0.38"
             id="g270"><g
               id="g258" /><g
               id="g268"><g
                 clip-path="url(#clipPath256)"
                 id="g266"><g
                   transform="matrix(1,0,0,-1,434.802,504.2437)"
                   id="g262"><path
                     d="m 13.60035,11.63789 1.89949,1.6254 C 32.93121,31.80417 36.64674,53.2231 26.6472,77.52072"
                     style="fill:none;stroke:#0076ba;stroke-width:5;stroke-linecap:butt;stroke-linejoin:miter;stroke-miterlimit:4;stroke-dasharray:none;stroke-opacity:1"
                     id="path260" /></g><path
                   d="m 456.9335,498.7303 -22.1315,5.5134 8.8682,-21.0132 z"
                   style="fill:#0076ba;fill-opacity:1;fill-rule:nonzero;stroke:none"
                   id="path264" /></g></g></g></g></g></g><g
       id="g274"><g
         id="g276"
         clip-path="url(#clipPath280)"><g
           id="g282" /><g
           id="g306"><g
             clip-path="url(#clipPath286)"
             opacity="0.375"
             id="g304"><g
               id="g292" /><g
               id="g302"><g
                 clip-path="url(#clipPath290)"
                 id="g300"><g
                   transform="matrix(0,1,1,0,319.1245,239.4388)"
                   id="g296"><path
                     d="M 268.1668,55.46273 C 237.8021,25.01263 197.946,5.84953 155.2012,1.147976 104.7934,-4.396448 54.54638,10.31588 15.27157,41.52971 l -1.87194,1.65803"
                     style="fill:none;stroke:#0076ba;stroke-width:5;stroke-linecap:butt;stroke-linejoin:miter;stroke-miterlimit:4;stroke-dasharray:none;stroke-opacity:1"
                     id="path294" /></g><path
                   d="m 353.0191,247.9469 21.1616,-8.5081 -5.8905,22.0341 z"
                   style="fill:#0076ba;fill-opacity:1;fill-rule:nonzero;stroke:none"
                   id="path298" /></g></g></g></g><g
           id="g308"
           transform="matrix(1,0,0,-1,267.1565,383.5637)"><path
             d="m 0,0 h 79.0894 2.5"
             style="fill:none;stroke:#0076ba;stroke-width:5;stroke-linecap:butt;stroke-linejoin:miter;stroke-miterlimit:4;stroke-dasharray:none;stroke-opacity:1"
             id="path310" /></g><path
           d="m 346.2459,373.3637 20.4,10.2 -20.4,10.2 z"
           style="fill:#0076ba;fill-opacity:1;fill-rule:nonzero;stroke:none"
           id="path312" /><g
           id="g314"
           transform="matrix(0,1,1,0,268.5586,91.1554)"><path
             d="M 0,0 H 294.538"
             style="fill:none;stroke:#0076ba;stroke-width:5;stroke-linecap:butt;stroke-linejoin:miter;stroke-miterlimit:4;stroke-dasharray:none;stroke-opacity:1"
             id="path316" /></g></g></g><g
       id="g318"><g
         id="g320"
         clip-path="url(#clipPath324)"><g
           id="g326" /><g
           id="g350"><g
             clip-path="url(#clipPath330)"
             opacity="0.38"
             id="g348"><g
               id="g336" /><g
               id="g346"><g
                 clip-path="url(#clipPath334)"
                 id="g344"><g
                   transform="matrix(0,1,1,0,437.3608,295.7533)"
                   id="g340"><path
                     d="m 0,21.82521 c 10.50951,6.43101 23.22206,8.19605 35.08607,4.87144 6.75432,-1.89275 12.86783,-5.318 17.92979,-9.90434 L 54.438,14.73182"
                     style="fill:none;stroke:#1db100;stroke-width:5;stroke-linecap:butt;stroke-linejoin:miter;stroke-miterlimit:4;stroke-dasharray:none;stroke-opacity:1"
                     id="path338" /></g><path
                   d="m 459.944,357.1659 -22.5832,3.1932 10.9954,-19.9825 z"
                   style="fill:#1db100;fill-opacity:1;fill-rule:nonzero;stroke:none"
                   id="path342" /></g></g></g></g></g></g><g
       id="g352"><g
         id="g354"
         clip-path="url(#clipPath358)"><g
           id="g360" /><g
           id="g384"><g
             clip-path="url(#clipPath364)"
             opacity="0.375"
             id="g382"><g
               id="g370" /><g
               id="g380"><g
                 clip-path="url(#clipPath368)"
                 id="g378"><g
                   transform="matrix(0,1,1,0,406.8548,265.4481)"
                   id="g374"><path
                     d="m 0,0 h 58.2404 2.5"
                     style="fill:none;stroke:#1db100;stroke-width:5;stroke-linecap:butt;stroke-linejoin:miter;stroke-miterlimit:4;stroke-dasharray:none;stroke-opacity:1"
                     id="path372" /></g><path
                   d="m 417.0548,323.6885 -10.2,20.4 -10.2,-20.4 z"
                   style="fill:#1db100;fill-opacity:1;fill-rule:nonzero;stroke:none"
                   id="path376" /></g></g></g></g><g
           id="g386"
           transform="matrix(0,-1,-1,0,405.8548,205.0885)"><path
             d="m 0,0 h 99.70745 2.50005"
             style="fill:none;stroke:#1db100;stroke-width:5;stroke-linecap:butt;stroke-linejoin:miter;stroke-miterlimit:4;stroke-dasharray:none;stroke-opacity:1"
             id="path388" /></g><path
           d="m 395.6548,105.3811 10.2,-20.40003 10.2,20.40003 z"
           style="fill:#1db100;fill-opacity:1;fill-rule:nonzero;stroke:none"
           id="path390" /><g
           id="g392"
           transform="matrix(-1,0,0,1,592.3431,546.3855)"><path
             d="m 0,0 h 89.08078 2.5"
             style="fill:none;stroke:#1db100;stroke-width:5;stroke-linecap:butt;stroke-linejoin:miter;stroke-miterlimit:4;stroke-dasharray:none;stroke-opacity:1"
             id="path394" /></g><path
           d="m 503.2623,556.5855 -20.4,-10.2 20.4,-10.2 z"
           style="fill:#1db100;fill-opacity:1;fill-rule:nonzero;stroke:none"
           id="path396" /><g
           id="g398"
           transform="matrix(-1,0,0,1,592.3431,269.6695)"><path
             d="m 0,0 h 89.08078 2.5"
             style="fill:none;stroke:#1db100;stroke-width:5;stroke-linecap:butt;stroke-linejoin:miter;stroke-miterlimit:4;stroke-dasharray:none;stroke-opacity:1"
             id="path400" /></g><path
           d="m 503.2623,279.8695 -20.4,-10.2 20.4,-10.2 z"
           style="fill:#1db100;fill-opacity:1;fill-rule:nonzero;stroke:none"
           id="path402" /><g
           id="g404"
           transform="matrix(0,-1,-1,0,590.1628,664.4726)"><path
             d="M 0,0 H 394.6058"
             style="fill:none;stroke:#1db100;stroke-width:5;stroke-linecap:butt;stroke-linejoin:miter;stroke-miterlimit:4;stroke-dasharray:none;stroke-opacity:1"
             id="path406" /></g><g
           id="g408"
           transform="matrix(-1,0,0,1,364.4514,517.4187)"><path
             d="m 17.9,0 h 2.5 126.8734 2.5"
             style="fill:none;stroke:#929292;stroke-width:5;stroke-linecap:butt;stroke-linejoin:miter;stroke-miterlimit:4;stroke-dasharray:none;stroke-opacity:1"
             id="path410" /></g><path
           d="m 217.178,527.6187 -20.4,-10.2 20.4,-10.2 z"
           style="fill:#929292;fill-opacity:1;fill-rule:nonzero;stroke:none"
           id="path412" /><path
           d="m 344.0514,507.2187 20.4,10.2 -20.4,10.2 z"
           style="fill:#929292;fill-opacity:1;fill-rule:nonzero;stroke:none"
           id="path414" /><g
           id="g416"
           transform="matrix(-1,0,0,1,646.4837,517.4187)"><path
             d="m 17.9,0 h 2.5 126.8734 2.5"
             style="fill:none;stroke:#929292;stroke-width:5;stroke-linecap:butt;stroke-linejoin:miter;stroke-miterlimit:4;stroke-dasharray:none;stroke-opacity:1"
             id="path418" /></g><path
           d="m 499.2103,527.6187 -20.4,-10.2 20.4,-10.2 z"
           style="fill:#929292;fill-opacity:1;fill-rule:nonzero;stroke:none"
           id="path420" /><path
           d="m 626.0837,507.2187 20.4,10.2 -20.4,10.2 z"
           style="fill:#929292;fill-opacity:1;fill-rule:nonzero;stroke:none"
           id="path422" /><g
           id="g424"
           transform="matrix(-1,0,0,1,793.4887,333.6746)"><path
             d="m 17.9,0 h 2.5 42.67115"
             style="fill:none;stroke:#929292;stroke-width:5;stroke-linecap:butt;stroke-linejoin:miter;stroke-miterlimit:4;stroke-dasharray:none;stroke-opacity:1"
             id="path426" /></g><path
           d="m 773.0887,323.4746 20.4,10.2 -20.4,10.2 z"
           style="fill:#929292;fill-opacity:1;fill-rule:nonzero;stroke:none"
           id="path428" /><g
           id="g430"
           transform="matrix(1,0,0,-1,730.4175,282.1145)"><path
             d="m 0,0 h 42.67115 2.5"
             style="fill:none;stroke:#1db100;stroke-width:5;stroke-linecap:butt;stroke-linejoin:miter;stroke-miterlimit:4;stroke-dasharray:none;stroke-opacity:1"
             id="path432" /></g><path
           d="m 773.0887,271.9145 20.4,10.2 -20.4,10.2 z"
           style="fill:#1db100;fill-opacity:1;fill-rule:nonzero;stroke:none"
           id="path434" /></g></g><g
       id="g436"><g
         id="g438"
         clip-path="url(#clipPath442)"><g
           id="g444" /><g
           id="g468"><g
             clip-path="url(#clipPath448)"
             opacity="0.37"
             id="g466"><g
               id="g454" /><g
               id="g464"><g
                 clip-path="url(#clipPath452)"
                 id="g462"><g
                   transform="matrix(1,0,0,-1,730.4175,235.2684)"
                   id="g458"><path
                     d="m 0,0 h 42.67115 2.5"
                     style="fill:none;stroke:#1db100;stroke-width:5;stroke-linecap:butt;stroke-linejoin:miter;stroke-miterlimit:4;stroke-dasharray:none;stroke-opacity:1"
                     id="path456" /></g><path
                   d="m 773.0887,225.0684 20.4,10.2 -20.4,10.2 z"
                   style="fill:#1db100;fill-opacity:1;fill-rule:nonzero;stroke:none"
                   id="path460" /></g></g></g></g></g></g><g
       id="g470"><g
         id="g472"
         clip-path="url(#clipPath476)"><g
           id="g478" /><g
           id="g502"><g
             clip-path="url(#clipPath482)"
             opacity="0.375"
             id="g500"><g
               id="g488" /><g
               id="g498"><g
                 clip-path="url(#clipPath486)"
                 id="g496"><g
                   transform="matrix(1,0,0,-1,730.4175,136.8621)"
                   id="g492"><path
                     d="m 0,0 h 42.67115 2.5"
                     style="fill:none;stroke:#0076ba;stroke-width:5;stroke-linecap:butt;stroke-linejoin:miter;stroke-miterlimit:4;stroke-dasharray:none;stroke-opacity:1"
                     id="path490" /></g><path
                   d="m 773.0887,126.6621 20.4,10.2 -20.4,10.2 z"
                   style="fill:#0076ba;fill-opacity:1;fill-rule:nonzero;stroke:none"
                   id="path494" /></g></g></g></g><g
           id="g504"
           transform="matrix(1,0,0,-1,732.2461,187.1035)"><path
             d="m 0,0 h 39.32813 2.5"
             style="fill:none;stroke:#0076ba;stroke-width:5;stroke-linecap:butt;stroke-linejoin:miter;stroke-miterlimit:4;stroke-dasharray:none;stroke-opacity:1"
             id="path506" /></g><path
           d="m 771.5742,176.9035 20.4,10.2 -20.4,10.2 z"
           style="fill:#0076ba;fill-opacity:1;fill-rule:nonzero;stroke:none"
           id="path508" /><g
           id="g510"
           transform="translate(230.4089,42.93546)"><text
             transform="scale(1,-1)"
             style="font-variant:normal;font-weight:bold;font-size:20px;font-family:'Helvetica Neue';-inkscape-font-specification:HelveticaNeue-Bold;writing-mode:lr-tb;fill:#000000;fill-opacity:1;fill-rule:nonzero;stroke:none"
             id="text514"><tspan
               x="0 10 22.219999 29.639999 36.299999 43.720001 55.939999 74.059998 79.620003 84.779999 97 113.28 124.76 132.53999 138.10001 149.58 161.8 169.58 176.62 181.78 193.25999 204.74001 209.89999 215.46001 226.94 234.36 245.84"
               y="0"
               sodipodi:role="line"
               id="tspan512">To/from lower cortical area</tspan></text></g><g
           id="g516"
           transform="translate(363.6794,697.9535)"><text
             transform="scale(1,-1)"
             style="font-variant:normal;font-weight:bold;font-size:20px;font-family:'Helvetica Neue';-inkscape-font-specification:HelveticaNeue-Bold;writing-mode:lr-tb;fill:#000000;fill-opacity:1;fill-rule:nonzero;stroke:none"
             id="text520"><tspan
               x="0 10 22.219999 29.639999 36.299999 43.720001 55.939999 74.059998 79.620003 91.480003 96.639999 108.86 120.72 132.2 139.98 145.53999 157.02 169.24001 177.02 184.06 189.22 200.7 212.17999 217.34 222.89999 234.38 241.8 253.28"
               y="0"
               sodipodi:role="line"
               id="tspan518">To/from higher cortical area</tspan></text></g><g
           id="g522"
           transform="translate(701.4336,522.0487)"><text
             transform="scale(1,-1)"
             style="font-variant:normal;font-weight:bold;font-size:20px;font-family:'Helvetica Neue';-inkscape-font-specification:HelveticaNeue-Bold;writing-mode:lr-tb;fill:#000000;fill-opacity:1;fill-rule:nonzero;stroke:none"
             id="text526"><tspan
               x="0 10 22.219999 29.639999 36.299999 43.720001 55.939999 74.059998 79.620003 91.839996 98.879997 110.74 122.22 130"
               y="0"
               sodipodi:role="line"
               id="tspan524">To/from other </tspan></text></g><g
           id="g528"
           transform="translate(687.0336,497.0487)"><text
             transform="scale(1,-1)"
             style="font-variant:normal;font-weight:bold;font-size:20px;font-family:'Helvetica Neue';-inkscape-font-specification:HelveticaNeue-Bold;writing-mode:lr-tb;fill:#000000;fill-opacity:1;fill-rule:nonzero;stroke:none"
             id="text532"><tspan
               x="0 11.48 23.700001 31.48 38.52 43.68 55.16 66.639999 71.800003 77.360001 88.839996 101.06 106.22 118.08 136.2 148.06"
               y="0"
               sodipodi:role="line"
               id="tspan530">cortical columns</tspan></text></g><g
           id="g534"
           transform="translate(30.05599,522.0487)"><text
             transform="scale(1,-1)"
             style="font-variant:normal;font-weight:bold;font-size:20px;font-family:'Helvetica Neue';-inkscape-font-specification:HelveticaNeue-Bold;writing-mode:lr-tb;fill:#000000;fill-opacity:1;fill-rule:nonzero;stroke:none"
             id="text538"><tspan
               x="0 10 22.219999 29.639999 36.299999 43.720001 55.939999 74.059998 79.620003 91.839996 98.879997 110.74 122.22 130"
               y="0"
               sodipodi:role="line"
               id="tspan536">To/from other </tspan></text></g><g
           id="g540"
           transform="translate(15.65599,497.0487)"><text
             transform="scale(1,-1)"
             style="font-variant:normal;font-weight:bold;font-size:20px;font-family:'Helvetica Neue';-inkscape-font-specification:HelveticaNeue-Bold;writing-mode:lr-tb;fill:#000000;fill-opacity:1;fill-rule:nonzero;stroke:none"
             id="text544"><tspan
               x="0 11.48 23.700001 31.48 38.52 43.68 55.16 66.639999 71.800003 77.360001 88.839996 101.06 106.22 118.08 136.2 148.06"
               y="0"
               sodipodi:role="line"
               id="tspan542">cortical columns</tspan></text></g><g
           id="g546"
           transform="translate(808.6467,327.8785)"><text
             transform="scale(1,-1)"
             style="font-variant:normal;font-weight:bold;font-size:16px;font-family:'Helvetica Neue';-inkscape-font-specification:HelveticaNeue-Bold;writing-mode:lr-tb;fill:#000000;fill-opacity:1;fill-rule:nonzero;stroke:none"
             id="text550"><tspan
               x="0 11.856 21.632 27.856001 31.983999 40.287998 50.063999 59.551998 65.183998 74.367996 78.496002 82.944 92.127998 101.904 111.392 120.88 130.064 139.248 144.88 149.008 158.784 168.272"
               y="0"
               sodipodi:role="line"
               id="tspan548">Horizontal connections</tspan></text></g><g
           id="g552"
           transform="translate(810.4147,276.3185)"><text
             transform="scale(1,-1)"
             style="font-variant:normal;font-weight:bold;font-size:16px;font-family:'Helvetica Neue';-inkscape-font-specification:HelveticaNeue-Bold;writing-mode:lr-tb;fill:#000000;fill-opacity:1;fill-rule:nonzero;stroke:none"
             id="text556"><tspan
               x="0 9.4879999 18.672001 27.856001 37.632 47.408001 56.591999 65.776001 74.959999 79.407997 88.592003 98.367996 107.856 117.344 126.528 135.71201 141.34399 145.472 155.248 164.73599"
               y="0"
               sodipodi:role="line"
               id="tspan554">Feedback connections</tspan></text></g><g
           id="g558"
           transform="translate(828.6627,238.9724)"><text
             transform="scale(1,-1)"
             style="font-variant:normal;font-weight:bold;font-size:16px;font-family:'Helvetica Neue';-inkscape-font-specification:HelveticaNeue-Bold;writing-mode:lr-tb;fill:#000000;fill-opacity:1;fill-rule:nonzero;stroke:none"
             id="text562"><tspan
               x="0 4.7199998 14.208 19.84 26.063999 30.191999 39.68 48.271999 52.400002 61.584 66.031998 71.360001 80.543999 89.727997 99.503998 109.28 118.464 127.648 136.832"
               y="0"
               sodipodi:role="line"
               id="tspan560">Intrinsic feedback </tspan></text></g><g
           id="g564"
           transform="translate(850.1187,219.9724)"><text
             transform="scale(1,-1)"
             style="font-variant:normal;font-weight:bold;font-size:16px;font-family:'Helvetica Neue';-inkscape-font-specification:HelveticaNeue-Bold;writing-mode:lr-tb;fill:#000000;fill-opacity:1;fill-rule:nonzero;stroke:none"
             id="text568"><tspan
               x="0 9.184 18.959999 28.448 37.936001 47.119999 56.304001 61.936001 66.064003 75.839996 85.328003"
               y="0"
               sodipodi:role="line"
               id="tspan566">connections</tspan></text></g><g
           id="g570"
           transform="translate(799.4547,182.8055)"><text
             transform="scale(1,-1)"
             style="font-variant:normal;font-weight:bold;font-size:16px;font-family:'Helvetica Neue';-inkscape-font-specification:HelveticaNeue-Bold;writing-mode:lr-tb;fill:#000000;fill-opacity:1;fill-rule:nonzero;stroke:none"
             id="text574"><tspan
               x="0 9.4879999 18.672001 27.856001 37.632 42.959999 52.736 58.959999 71.984001 81.167999 87.103996 96.879997 101.328 110.512 120.288 129.776 139.26401 148.448 157.632 163.26401 167.392 177.168 186.65601"
               y="0"
               sodipodi:role="line"
               id="tspan572">Feedforward connections</tspan></text></g><g
           id="g576"
           transform="translate(826.7479,140.5661)"><text
             transform="scale(1,-1)"
             style="font-variant:normal;font-weight:bold;font-size:16px;font-family:'Helvetica Neue';-inkscape-font-specification:HelveticaNeue-Bold;writing-mode:lr-tb;fill:#000000;fill-opacity:1;fill-rule:nonzero;stroke:none"
             id="text580"><tspan
               x="0 4.7199998 14.208 19.84 26.063999 30.191999 39.68 48.271999 52.400002 61.584 66.031998 71.360001 80.543999 89.727997 99.503998 104.832 114.608 120.832 133.856 143.03999 148.976 158.752"
               y="0"
               sodipodi:role="line"
               id="tspan578">Intrinsic feedforward </tspan></text></g><g
           id="g582"
           transform="translate(859.1639,121.5661)"><text
             transform="scale(1,-1)"
             style="font-variant:normal;font-weight:bold;font-size:16px;font-family:'Helvetica Neue';-inkscape-font-specification:HelveticaNeue-Bold;writing-mode:lr-tb;fill:#000000;fill-opacity:1;fill-rule:nonzero;stroke:none"
             id="text586"><tspan
               x="0 9.184 18.959999 28.448 37.936001 47.119999 56.304001 61.936001 66.064003 75.839996 85.328003"
               y="0"
               sodipodi:role="line"
               id="tspan584">connections</tspan></text></g><g
           id="g588"
           transform="matrix(1,0,0,-1,700.8527,372.2332)"><path
             d="M 0,0 H 315.1499 V 275.9298 H 0 Z"
             style="fill:none;stroke:#000000;stroke-width:1;stroke-linecap:butt;stroke-linejoin:miter;stroke-miterlimit:4;stroke-dasharray:none;stroke-opacity:1"
             id="path590" /></g></g></g></g></svg>
