<?xml version="1.0" standalone="no"?><!DOCTYPE svg PUBLIC "-//W3C//DTD SVG 1.1//EN" "http://www.w3.org/Graphics/SVG/1.1/DTD/svg11.dtd"><svg xmlns:xlink="http://www.w3.org/1999/xlink" version="1.1" class="highcharts-root" style="font-family:&quot;Lucida Grande&quot;, &quot;Lucida Sans Unicode&quot;, Arial, Helvetica, sans-serif;font-size:12px;" xmlns="http://www.w3.org/2000/svg" width="600" height="350" viewBox="0 0 600 350"><desc>Created with Highcharts 7.2.1</desc><defs><clipPath id="highcharts-2u1pdks-464-"><rect x="0" y="0" width="517" height="259" fill="none"></rect></clipPath></defs><rect fill="#ffffff" class="highcharts-background" x="0" y="0" width="600" height="350" rx="0" ry="0"></rect><rect fill="none" class="highcharts-plot-background" x="73" y="10" width="517" height="259"></rect><g class="highcharts-grid highcharts-xaxis-grid" data-z-index="1"><path fill="none" data-z-index="1" class="highcharts-grid-line" d="M 131.5 10 L 131.5 269" opacity="1"></path><path fill="none" data-z-index="1" class="highcharts-grid-line" d="M 238.5 10 L 238.5 269" opacity="1"></path><path fill="none" data-z-index="1" class="highcharts-grid-line" d="M 345.5 10 L 345.5 269" opacity="1"></path><path fill="none" data-z-index="1" class="highcharts-grid-line" d="M 452.5 10 L 452.5 269" opacity="1"></path><path fill="none" data-z-index="1" class="highcharts-grid-line" d="M 559.5 10 L 559.5 269" opacity="1"></path></g><g class="highcharts-grid highcharts-yaxis-grid" data-z-index="1"><path fill="none" stroke="#e6e6e6" stroke-width="1" data-z-index="1" class="highcharts-grid-line" d="M 73 269.5 L 590 269.5" opacity="1"></path><path fill="none" stroke="#e6e6e6" stroke-width="1" data-z-index="1" class="highcharts-grid-line" d="M 73 183.5 L 590 183.5" opacity="1"></path><path fill="none" stroke="#e6e6e6" stroke-width="1" data-z-index="1" class="highcharts-grid-line" d="M 73 96.5 L 590 96.5" opacity="1"></path><path fill="none" stroke="#e6e6e6" stroke-width="1" data-z-index="1" class="highcharts-grid-line" d="M 73 9.5 L 590 9.5" opacity="1"></path></g><rect fill="none" class="highcharts-plot-border" data-z-index="1" x="73" y="10" width="517" height="259"></rect><g class="highcharts-axis highcharts-xaxis" data-z-index="2"><path fill="none" class="highcharts-tick" stroke="#ccd6eb" stroke-width="1" d="M 131.5 269 L 131.5 279" opacity="1"></path><path fill="none" class="highcharts-tick" stroke="#ccd6eb" stroke-width="1" d="M 238.5 269 L 238.5 279" opacity="1"></path><path fill="none" class="highcharts-tick" stroke="#ccd6eb" stroke-width="1" d="M 345.5 269 L 345.5 279" opacity="1"></path><path fill="none" class="highcharts-tick" stroke="#ccd6eb" stroke-width="1" d="M 452.5 269 L 452.5 279" opacity="1"></path><path fill="none" class="highcharts-tick" stroke="#ccd6eb" stroke-width="1" d="M 559.5 269 L 559.5 279" opacity="1"></path><path fill="none" class="highcharts-axis-line" stroke="#ccd6eb" stroke-width="1" data-z-index="7" d="M 73 269.5 L 590 269.5"></path></g><g class="highcharts-axis highcharts-yaxis" data-z-index="2"><text x="26.200000762939453" data-z-index="7" text-anchor="middle" transform="translate(0,0) rotate(270 26.200000762939453 139.5)" class="highcharts-axis-title" style="color:#666666;font-size:12px;fill:#666666;" y="139.5"><tspan>TOP 5 ACCURACY</tspan></text><path fill="none" class="highcharts-axis-line" data-z-index="7" d="M 73 10 L 73 269"></path></g><g class="highcharts-series-group" data-z-index="3"><g data-z-index="1" class="highcharts-series highcharts-series-0 highcharts-scatter-series" transform="translate(73,10) scale(1 1)" clip-path="url(#highcharts-2u1pdks-464-)"></g><g data-z-index="1" class="highcharts-markers highcharts-series-0 highcharts-scatter-series" transform="translate(73,10) scale(1 1)" clip-path="none"><path fill="#ddd" d="M 158 142 A 4 4 0 1 1 158.00399999933333 141.99999800000018 Z" opacity="1" class="highcharts-point"></path><path fill="#ddd" d="M 201 74 A 4 4 0 1 1 201.00399999933333 73.99999800000016 Z" opacity="1" class="highcharts-point"></path><path fill="#ddd" d="M 203 91 A 4 4 0 1 1 203.00399999933333 90.99999800000016 Z" opacity="1" class="highcharts-point"></path><path fill="#ddd" d="M 269 56 A 4 4 0 1 1 269.00399999933336 55.99999800000017 Z" opacity="1" class="highcharts-point"></path><path fill="#ddd" d="M 269 62 A 4 4 0 1 1 269.00399999933336 61.99999800000017 Z" opacity="1" class="highcharts-point"></path><path fill="#ddd" d="M 280 174 A 4 4 0 1 1 280.00399999933336 173.99999800000018 Z" opacity="1" class="highcharts-point"></path><path fill="#ddd" d="M 293 56 A 4 4 0 1 1 293.00399999933336 55.99999800000017 Z" opacity="1" class="highcharts-point"></path><path fill="#ddd" d="M 293 68 A 4 4 0 1 1 293.00399999933336 67.99999800000016 Z" opacity="1" class="highcharts-point"></path><path fill="#ddd" d="M 307 57 A 4 4 0 1 1 307.00399999933336 56.99999800000017 Z" opacity="1" class="highcharts-point"></path><path fill="#ddd" d="M 307 59 A 4 4 0 1 1 307.00399999933336 58.99999800000017 Z" opacity="1" class="highcharts-point"></path><path fill="#ddd" d="M 307 63 A 4 4 0 1 1 307.00399999933336 62.99999800000017 Z" opacity="1" class="highcharts-point"></path><path fill="#ddd" d="M 307 71 A 4 4 0 1 1 307.00399999933336 70.99999800000016 Z" opacity="1" class="highcharts-point"></path><path fill="#ddd" d="M 313 51 A 4 4 0 1 1 313.00399999933336 50.99999800000017 Z" opacity="1" class="highcharts-point"></path><path fill="#ddd" d="M 341 95 A 4 4 0 1 1 341.00399999933336 94.99999800000016 Z" opacity="1" class="highcharts-point"></path><path fill="#ddd" d="M 353 92 A 4 4 0 1 1 353.00399999933336 91.99999800000016 Z" opacity="1" class="highcharts-point"></path><path fill="#ddd" d="M 353 42 A 4 4 0 1 1 353.00399999933336 41.99999800000017 Z" opacity="1" class="highcharts-point"></path><path fill="#ddd" d="M 353 42 A 4 4 0 1 1 353.00399999933336 41.99999800000017 Z" opacity="1" class="highcharts-point"></path><path fill="#ddd" d="M 353 43 A 4 4 0 1 1 353.00399999933336 42.99999800000017 Z" opacity="1" class="highcharts-point"></path><path fill="#ddd" d="M 353 44 A 4 4 0 1 1 353.00399999933336 43.99999800000017 Z" opacity="1" class="highcharts-point"></path><path fill="#ddd" d="M 353 48 A 4 4 0 1 1 353.00399999933336 47.99999800000017 Z" opacity="1" class="highcharts-point"></path><path fill="#ddd" d="M 353 48 A 4 4 0 1 1 353.00399999933336 47.99999800000017 Z" opacity="1" class="highcharts-point"></path><path fill="#ddd" d="M 353 50 A 4 4 0 1 1 353.00399999933336 49.99999800000017 Z" opacity="1" class="highcharts-point"></path><path fill="#ddd" d="M 353 52 A 4 4 0 1 1 353.00399999933336 51.99999800000017 Z" opacity="1" class="highcharts-point"></path><path fill="#ddd" d="M 353 55 A 4 4 0 1 1 353.00399999933336 54.99999800000017 Z" opacity="1" class="highcharts-point"></path><path fill="#ddd" d="M 353 64 A 4 4 0 1 1 353.00399999933336 63.99999800000017 Z" opacity="1" class="highcharts-point"></path><path fill="#ddd" d="M 354 50 A 4 4 0 1 1 354.00399999933336 49.99999800000017 Z" opacity="1" class="highcharts-point"></path><path fill="#ddd" d="M 375 37 A 4 4 0 1 1 375.00399999933336 36.99999800000017 Z" opacity="1" class="highcharts-point"></path><path fill="#ddd" d="M 385 49 A 4 4 0 1 1 385.00399999933336 48.99999800000017 Z" opacity="1" class="highcharts-point"></path><path fill="#ddd" d="M 407 67 A 4 4 0 1 1 407.00399999933336 66.99999800000016 Z" opacity="1" class="highcharts-point"></path><path fill="#ddd" d="M 410 62 A 4 4 0 1 1 410.00399999933336 61.99999800000017 Z" opacity="1" class="highcharts-point"></path><path fill="#ddd" d="M 410 67 A 4 4 0 1 1 410.00399999933336 66.99999800000016 Z" opacity="1" class="highcharts-point"></path><path fill="#ddd" d="M 410 69 A 4 4 0 1 1 410.00399999933336 68.99999800000016 Z" opacity="1" class="highcharts-point"></path><path fill="#ddd" d="M 429 60 A 4 4 0 1 1 429.00399999933336 59.99999800000017 Z" opacity="1" class="highcharts-point"></path><path fill="#ddd" d="M 439 32 A 4 4 0 1 1 439.00399999933336 31.99999800000017 Z" opacity="1" class="highcharts-point"></path><path fill="#ddd" d="M 439 34 A 4 4 0 1 1 439.00399999933336 33.99999800000017 Z" opacity="1" class="highcharts-point"></path><path fill="#ddd" d="M 439 49 A 4 4 0 1 1 439.00399999933336 48.99999800000017 Z" opacity="1" class="highcharts-point"></path><path fill="#ddd" d="M 439 110 A 4 4 0 1 1 439.00399999933336 109.99999800000016 Z" opacity="1" class="highcharts-point"></path><path fill="#ddd" d="M 446 52 A 4 4 0 1 1 446.00399999933336 51.99999800000017 Z" opacity="1" class="highcharts-point"></path><path fill="#ddd" d="M 446 49 A 4 4 0 1 1 446.00399999933336 48.99999800000017 Z" opacity="1" class="highcharts-point"></path><path fill="#ddd" d="M 446 55 A 4 4 0 1 1 446.00399999933336 54.99999800000017 Z" opacity="1" class="highcharts-point"></path><path fill="#ddd" d="M 447 71 A 4 4 0 1 1 447.00399999933336 70.99999800000016 Z" opacity="1" class="highcharts-point"></path><path fill="#ddd" d="M 447 36 A 4 4 0 1 1 447.00399999933336 35.99999800000017 Z" opacity="1" class="highcharts-point"></path><path fill="#ddd" d="M 449 51 A 4 4 0 1 1 449.00399999933336 50.99999800000017 Z" opacity="1" class="highcharts-point"></path><path fill="#ddd" d="M 449 51 A 4 4 0 1 1 449.00399999933336 50.99999800000017 Z" opacity="1" class="highcharts-point"></path><path fill="#ddd" d="M 450 68 A 4 4 0 1 1 450.00399999933336 67.99999800000016 Z" opacity="1" class="highcharts-point"></path><path fill="#ddd" d="M 450 45 A 4 4 0 1 1 450.00399999933336 44.99999800000017 Z" opacity="1" class="highcharts-point"></path><path fill="#ddd" d="M 450 45 A 4 4 0 1 1 450.00399999933336 44.99999800000017 Z" opacity="1" class="highcharts-point"></path><path fill="#ddd" d="M 452 47 A 4 4 0 1 1 452.00399999933336 46.99999800000017 Z" opacity="1" class="highcharts-point"></path><path fill="#ddd" d="M 452 55 A 4 4 0 1 1 452.00399999933336 54.99999800000017 Z" opacity="1" class="highcharts-point"></path><path fill="#ddd" d="M 454 53 A 4 4 0 1 1 454.00399999933336 52.99999800000017 Z" opacity="1" class="highcharts-point"></path><path fill="#ddd" d="M 454 31 A 4 4 0 1 1 454.00399999933336 30.99999800000017 Z" opacity="1" class="highcharts-point"></path><path fill="#ddd" d="M 454 32 A 4 4 0 1 1 454.00399999933336 31.99999800000017 Z" opacity="1" class="highcharts-point"></path><path fill="#ddd" d="M 454 36 A 4 4 0 1 1 454.00399999933336 35.99999800000017 Z" opacity="1" class="highcharts-point"></path><path fill="#ddd" d="M 454 43 A 4 4 0 1 1 454.00399999933336 42.99999800000017 Z" opacity="1" class="highcharts-point"></path><path fill="#ddd" d="M 454 48 A 4 4 0 1 1 454.00399999933336 47.99999800000017 Z" opacity="1" class="highcharts-point"></path><path fill="#ddd" d="M 454 52 A 4 4 0 1 1 454.00399999933336 51.99999800000017 Z" opacity="1" class="highcharts-point"></path><path fill="#ddd" d="M 454 63 A 4 4 0 1 1 454.00399999933336 62.99999800000017 Z" opacity="1" class="highcharts-point"></path><path fill="#ddd" d="M 457 32 A 4 4 0 1 1 457.00399999933336 31.99999800000017 Z" opacity="1" class="highcharts-point"></path><path fill="#ddd" d="M 457 48 A 4 4 0 1 1 457.00399999933336 47.99999800000017 Z" opacity="1" class="highcharts-point"></path><path fill="#ddd" d="M 457 51 A 4 4 0 1 1 457.00399999933336 50.99999800000017 Z" opacity="1" class="highcharts-point"></path><path fill="#ddd" d="M 458 68 A 4 4 0 1 1 458.00399999933336 67.99999800000016 Z" opacity="1" class="highcharts-point"></path><path fill="#ddd" d="M 462 54 A 4 4 0 1 1 462.00399999933336 53.99999800000017 Z" opacity="1" class="highcharts-point"></path><path fill="#ddd" d="M 462 62 A 4 4 0 1 1 462.00399999933336 61.99999800000017 Z" opacity="1" class="highcharts-point"></path><path fill="#ddd" d="M 462 66 A 4 4 0 1 1 462.00399999933336 65.99999800000016 Z" opacity="1" class="highcharts-point"></path><path fill="#ddd" d="M 463 82 A 4 4 0 1 1 463.00399999933336 81.99999800000016 Z" opacity="1" class="highcharts-point"></path><path fill="#ddd" d="M 464 66 A 4 4 0 1 1 464.00399999933336 65.99999800000016 Z" opacity="1" class="highcharts-point"></path><path fill="#ddd" d="M 466 51 A 4 4 0 1 1 466.00399999933336 50.99999800000017 Z" opacity="1" class="highcharts-point"></path><path fill="#ddd" d="M 466 56 A 4 4 0 1 1 466.00399999933336 55.99999800000017 Z" opacity="1" class="highcharts-point"></path><path fill="#ddd" d="M 466 63 A 4 4 0 1 1 466.00399999933336 62.99999800000017 Z" opacity="1" class="highcharts-point"></path><path fill="#ddd" d="M 466 61 A 4 4 0 1 1 466.00399999933336 60.99999800000017 Z" opacity="1" class="highcharts-point"></path><path fill="#ddd" d="M 466 64 A 4 4 0 1 1 466.00399999933336 63.99999800000017 Z" opacity="1" class="highcharts-point"></path><path fill="#ddd" d="M 466 68 A 4 4 0 1 1 466.00399999933336 67.99999800000016 Z" opacity="1" class="highcharts-point"></path><path fill="#ddd" d="M 467 45 A 4 4 0 1 1 467.00399999933336 44.99999800000017 Z" opacity="1" class="highcharts-point"></path><path fill="#ddd" d="M 472 141 A 4 4 0 1 1 472.00399999933336 140.99999800000018 Z" opacity="1" class="highcharts-point"></path><path fill="#ddd" d="M 472 165 A 4 4 0 1 1 472.00399999933336 164.99999800000018 Z" opacity="1" class="highcharts-point"></path><path fill="#ddd" d="M 474 51 A 4 4 0 1 1 474.00399999933336 50.99999800000017 Z" opacity="1" class="highcharts-point"></path><path fill="#ddd" d="M 474 53 A 4 4 0 1 1 474.00399999933336 52.99999800000017 Z" opacity="1" class="highcharts-point"></path><path fill="#ddd" d="M 474 59 A 4 4 0 1 1 474.00399999933336 58.99999800000017 Z" opacity="1" class="highcharts-point"></path><path fill="#ddd" d="M 474 83 A 4 4 0 1 1 474.00399999933336 82.99999800000016 Z" opacity="1" class="highcharts-point"></path><path fill="#ddd" d="M 480 28 A 4 4 0 1 1 480.00399999933336 27.99999800000017 Z" opacity="1" class="highcharts-point"></path><path fill="#ddd" d="M 480 52 A 4 4 0 1 1 480.00399999933336 51.99999800000017 Z" opacity="1" class="highcharts-point"></path><path fill="#ddd" d="M 480 60 A 4 4 0 1 1 480.00399999933336 59.99999800000017 Z" opacity="1" class="highcharts-point"></path><path fill="#ddd" d="M 481 45 A 4 4 0 1 1 481.00399999933336 44.99999800000017 Z" opacity="1" class="highcharts-point"></path><path fill="#ddd" d="M 481 67 A 4 4 0 1 1 481.00399999933336 66.99999800000016 Z" opacity="1" class="highcharts-point"></path><path fill="#ddd" d="M 498 30 A 4 4 0 1 1 498.00399999933336 29.99999800000017 Z" opacity="1" class="highcharts-point"></path><path fill="#ddd" d="M 498 44 A 4 4 0 1 1 498.00399999933336 43.99999800000017 Z" opacity="1" class="highcharts-point"></path><path fill="#ddd" d="M 499 62 A 4 4 0 1 1 499.00399999933336 61.99999800000017 Z" opacity="1" class="highcharts-point"></path><path fill="#ddd" d="M 499 64 A 4 4 0 1 1 499.00399999933336 63.99999800000017 Z" opacity="1" class="highcharts-point"></path><path fill="#ddd" d="M 499 69 A 4 4 0 1 1 499.00399999933336 68.99999800000016 Z" opacity="1" class="highcharts-point"></path><path fill="#ddd" d="M 500 63 A 4 4 0 1 1 500.00399999933336 62.99999800000017 Z" opacity="1" class="highcharts-point"></path><path fill="#ddd" d="M 500 69 A 4 4 0 1 1 500.00399999933336 68.99999800000016 Z" opacity="1" class="highcharts-point"></path><path fill="#ddd" d="M 500 88 A 4 4 0 1 1 500.00399999933336 87.99999800000016 Z" opacity="1" class="highcharts-point"></path><path fill="#ddd" d="M 500 118 A 4 4 0 1 1 500.00399999933336 117.99999800000016 Z" opacity="1" class="highcharts-point"></path><path fill="#ddd" d="M 503 42 A 4 4 0 1 1 503.00399999933336 41.99999800000017 Z" opacity="1" class="highcharts-point"></path><path fill="#ddd" d="M 511 41 A 4 4 0 1 1 511.00399999933336 40.99999800000017 Z" opacity="1" class="highcharts-point"></path></g><g data-z-index="2" class="highcharts-series highcharts-series-1 highcharts-line-series" transform="translate(73,10) scale(1 1)" clip-path="url(#highcharts-2u1pdks-464-)"><path fill="none" d="M 5.0686274509804 226.19333333333336 L 107.67242200524 132.95333333333338 L 158.38801188492 126.91000000000003 L 163.81135531136 118.2766666666667 L 164.10450901008 114.3053333333333 L 201.77475929643 69.06666666666666 L 225.22705519455 67.33999999999997 L 269.49326370224 49.29633333333328 L 280.48652740448 42.3033333333334 L 283.71121809048 41.44 L 319.62254618447 37.986666666666736 L 353.62837523673 36.519000000000034 L 355.82702797718 32.80666666666664 L 384.99582100046 29.35333333333338 L 426.62364621962 25.900000000000006 L 454.91297814672 25.03666666666672 L 480.85708048402 23.31000000000003 L 498.15314870888 20.720000000000056" class="highcharts-graph" data-z-index="1" stroke="#21ccc7" stroke-width="2" stroke-linejoin="round" stroke-linecap="round"></path></g><g data-z-index="2" class="highcharts-markers highcharts-series-1 highcharts-line-series" transform="translate(73,10) scale(1 1)" clip-path="none"><path fill="#21ccc7" d="M 5 230 A 4 4 0 1 1 5.0039999993333355 229.99999800000018 Z" opacity="1" class="highcharts-point"></path><path fill="#21ccc7" d="M 107 137 A 4 4 0 1 1 107.00399999933333 136.99999800000018 Z" opacity="1" class="highcharts-point"></path><path fill="#21ccc7" d="M 158 131 A 4 4 0 1 1 158.00399999933333 130.99999800000018 Z" opacity="1" class="highcharts-point"></path><path fill="#21ccc7" d="M 163 122 A 4 4 0 1 1 163.00399999933333 121.99999800000016 Z" opacity="1" class="highcharts-point"></path><path fill="#21ccc7" d="M 164 118 A 4 4 0 1 1 164.00399999933333 117.99999800000016 Z" opacity="1" class="highcharts-point"></path><path fill="#21ccc7" d="M 201 73 A 4 4 0 1 1 201.00399999933333 72.99999800000016 Z" opacity="1" class="highcharts-point"></path><path fill="#21ccc7" d="M 225 71 A 4 4 0 1 1 225.00399999933333 70.99999800000016 Z" opacity="1" class="highcharts-point"></path><path fill="#21ccc7" d="M 269 53 A 4 4 0 1 1 269.00399999933336 52.99999800000017 Z" opacity="1" class="highcharts-point"></path><path fill="#21ccc7" d="M 280 46 A 4 4 0 1 1 280.00399999933336 45.99999800000017 Z" opacity="1" class="highcharts-point"></path><path fill="#21ccc7" d="M 283 45 A 4 4 0 1 1 283.00399999933336 44.99999800000017 Z" opacity="1" class="highcharts-point"></path><path fill="#21ccc7" d="M 319 42 A 4 4 0 1 1 319.00399999933336 41.99999800000017 Z" opacity="1" class="highcharts-point"></path><path fill="#21ccc7" d="M 353 41 A 4 4 0 1 1 353.00399999933336 40.99999800000017 Z" opacity="1" class="highcharts-point"></path><path fill="#21ccc7" d="M 355 37 A 4 4 0 1 1 355.00399999933336 36.99999800000017 Z" opacity="1" class="highcharts-point"></path><path fill="#21ccc7" d="M 384 33 A 4 4 0 1 1 384.00399999933336 32.99999800000017 Z" opacity="1" class="highcharts-point"></path><path fill="#21ccc7" d="M 426 30 A 4 4 0 1 1 426.00399999933336 29.99999800000017 Z" opacity="1" class="highcharts-point"></path><path fill="#21ccc7" d="M 454 29 A 4 4 0 1 1 454.00399999933336 28.99999800000017 Z" opacity="1" class="highcharts-point"></path><path fill="#21ccc7" d="M 480 27 A 4 4 0 1 1 480.00399999933336 26.99999800000017 Z" opacity="1" class="highcharts-point"></path><path fill="#21ccc7" d="M 498 25 A 4 4 0 1 1 498.00399999933336 24.99999800000017 Z" opacity="1" class="highcharts-point"></path></g></g><g data-z-index="3" class="highcharts-data-labels highcharts-series-1 highcharts-line-series" transform="translate(73,10) scale(1 1)"><g class="highcharts-label highcharts-data-label highcharts-data-label-color-undefined" data-z-index="1" transform="translate(-5,202)"><text x="5" data-z-index="1" style="font-size:11px;font-weight:normal;color:#4a4a4a;fill:#4a4a4a;" y="16"><tspan x="5" y="16" class="highcharts-text-outline" fill="#FFFFFF" stroke="#FFFFFF" stroke-width="2px" stroke-linejoin="round" style="">SIFT + FVs</tspan><tspan x="5" y="16">SIFT + FVs</tspan></text></g><g class="highcharts-label highcharts-data-label highcharts-data-label-color-undefined" data-z-index="1" transform="translate(59,108)"><text x="5" data-z-index="1" style="font-size:11px;font-weight:normal;color:#4a4a4a;fill:#4a4a4a;" y="16"><tspan x="5" y="16" class="highcharts-text-outline" fill="#FFFFFF" stroke="#FFFFFF" stroke-width="2px" stroke-linejoin="round" style="">AlexNet （60M）</tspan><tspan x="5" y="16">AlexNet （60M）</tspan></text></g><g class="highcharts-label highcharts-data-label highcharts-data-label-color-undefined" data-z-index="1" transform="translate(80,-9999)" opacity="0"><text x="5" data-z-index="1" style="font-size:11px;font-weight:normal;color:#4a4a4a;fill:#4a4a4a;" y="16"><tspan x="5" y="16" class="highcharts-text-outline" fill="#FFFFFF" stroke="#FFFFFF" stroke-width="2px" stroke-linejoin="round" style="">ZFNet (ensemble, 6 convnets)</tspan><tspan x="5" y="16">ZFNet (ensemble, 6 convnets)</tspan></text></g><g class="highcharts-label highcharts-data-label highcharts-data-label-color-undefined" data-z-index="1" transform="translate(102,-9999)" opacity="0"><text x="5" data-z-index="1" style="font-size:11px;font-weight:normal;color:#4a4a4a;fill:#4a4a4a;" y="16"><tspan x="5" y="16" class="highcharts-text-outline" fill="#FFFFFF" stroke="#FFFFFF" stroke-width="2px" stroke-linejoin="round" style="">Five Base + Five HiRes</tspan><tspan x="5" y="16">Five Base + Five HiRes</tspan></text></g><g class="highcharts-label highcharts-data-label highcharts-data-label-color-undefined" data-z-index="1" transform="translate(86,90)"><text x="5" data-z-index="1" style="font-size:11px;font-weight:normal;color:#4a4a4a;fill:#4a4a4a;" y="16"><tspan x="5" y="16" class="highcharts-text-outline" fill="#FFFFFF" stroke="#FFFFFF" stroke-width="2px" stroke-linejoin="round" style="">OverFeat - 7 accurate models</tspan><tspan x="5" y="16">OverFeat - 7 accurate models</tspan></text></g><g class="highcharts-label highcharts-data-label highcharts-data-label-color-undefined" data-z-index="1" transform="translate(176,45)"><text x="5" data-z-index="1" style="font-size:11px;font-weight:normal;color:#4a4a4a;fill:#4a4a4a;" y="16"><tspan x="5" y="16" class="highcharts-text-outline" fill="#FFFFFF" stroke="#FFFFFF" stroke-width="2px" stroke-linejoin="round" style="">VGG-19</tspan><tspan x="5" y="16">VGG-19</tspan></text></g><g class="highcharts-label highcharts-data-label highcharts-data-label-color-undefined" data-z-index="1" transform="translate(189,-9999)" opacity="0"><text x="5" data-z-index="1" style="font-size:11px;font-weight:normal;color:#4a4a4a;fill:#4a4a4a;" y="16"><tspan x="5" y="16" class="highcharts-text-outline" fill="#FFFFFF" stroke="#FFFFFF" stroke-width="2px" stroke-linejoin="round" style="">Inception V2</tspan><tspan x="5" y="16">Inception V2</tspan></text></g><g class="highcharts-label highcharts-data-label highcharts-data-label-color-undefined" data-z-index="1" transform="translate(218,25)"><text x="5" data-z-index="1" style="font-size:11px;font-weight:normal;color:#4a4a4a;fill:#4a4a4a;" y="16"><tspan x="5" y="16" class="highcharts-text-outline" fill="#FFFFFF" stroke="#FFFFFF" stroke-width="2px" stroke-linejoin="round" style="">ResNet-152 (60M)</tspan><tspan x="5" y="16">ResNet-152 (60M)</tspan></text></g><g class="highcharts-label highcharts-data-label highcharts-data-label-color-undefined" data-z-index="1" transform="translate(224,-9999)" opacity="0"><text x="5" data-z-index="1" style="font-size:11px;font-weight:normal;color:#4a4a4a;fill:#4a4a4a;" y="16"><tspan x="5" y="16" class="highcharts-text-outline" fill="#FFFFFF" stroke="#FFFFFF" stroke-width="2px" stroke-linejoin="round" style="">Inception ResNet V2</tspan><tspan x="5" y="16">Inception ResNet V2</tspan></text></g><g class="highcharts-label highcharts-data-label highcharts-data-label-color-undefined" data-z-index="1" transform="translate(248,-9999)" opacity="0"><text x="5" data-z-index="1" style="font-size:11px;font-weight:normal;color:#4a4a4a;fill:#4a4a4a;" y="16"><tspan x="5" y="16" class="highcharts-text-outline" fill="#FFFFFF" stroke="#FFFFFF" stroke-width="2px" stroke-linejoin="round" style="">ResNet-200</tspan><tspan x="5" y="16">ResNet-200</tspan></text></g><g class="highcharts-label highcharts-data-label highcharts-data-label-color-undefined" data-z-index="1" transform="translate(266,-9999)" opacity="0"><text x="5" data-z-index="1" style="font-size:11px;font-weight:normal;color:#4a4a4a;fill:#4a4a4a;" y="16"><tspan x="5" y="16" class="highcharts-text-outline" fill="#FFFFFF" stroke="#FFFFFF" stroke-width="2px" stroke-linejoin="round" style="">ResNeXt-101  64x4</tspan><tspan x="5" y="16">ResNeXt-101  64x4</tspan></text></g><g class="highcharts-label highcharts-data-label highcharts-data-label-color-undefined" data-z-index="1" transform="translate(297,-9999)" opacity="0"><text x="5" data-z-index="1" style="font-size:11px;font-weight:normal;color:#4a4a4a;fill:#4a4a4a;" y="16"><tspan x="5" y="16" class="highcharts-text-outline" fill="#FFFFFF" stroke="#FFFFFF" stroke-width="2px" stroke-linejoin="round" style="">DPN-131 (320x320)</tspan><tspan x="5" y="16">DPN-131 (320x320)</tspan></text></g><g class="highcharts-label highcharts-data-label highcharts-data-label-color-undefined" data-z-index="1" transform="translate(316,9)"><text x="5" data-z-index="1" style="font-size:11px;font-weight:normal;color:#4a4a4a;fill:#4a4a4a;" y="16"><tspan x="5" y="16" class="highcharts-text-outline" fill="#FFFFFF" stroke="#FFFFFF" stroke-width="2px" stroke-linejoin="round" style="">NASNET-A(6)</tspan><tspan x="5" y="16">NASNET-A(6)</tspan></text></g><g class="highcharts-label highcharts-data-label highcharts-data-label-color-undefined" data-z-index="1" transform="translate(344,-9999)" opacity="0"><text x="5" data-z-index="1" style="font-size:11px;font-weight:normal;color:#4a4a4a;fill:#4a4a4a;" y="16"><tspan x="5" y="16" class="highcharts-text-outline" fill="#FFFFFF" stroke="#FFFFFF" stroke-width="2px" stroke-linejoin="round" style="">AmoebaNet-A</tspan><tspan x="5" y="16">AmoebaNet-A</tspan></text></g><g class="highcharts-label highcharts-data-label highcharts-data-label-color-undefined" data-z-index="1" transform="translate(405,2)"><text x="5" data-z-index="1" style="font-size:11px;font-weight:normal;color:#4a4a4a;fill:#4a4a4a;" y="16"><tspan x="5" y="16" class="highcharts-text-outline" fill="#FFFFFF" stroke="#FFFFFF" stroke-width="2px" stroke-linejoin="round" style="">GPIPE</tspan><tspan x="5" y="16">GPIPE</tspan></text></g><g class="highcharts-label highcharts-data-label highcharts-data-label-color-undefined" data-z-index="1" transform="translate(411,-9999)" opacity="0"><text x="5" data-z-index="1" style="font-size:11px;font-weight:normal;color:#4a4a4a;fill:#4a4a4a;" y="16"><tspan x="5" y="16" class="highcharts-text-outline" fill="#FFFFFF" stroke="#FFFFFF" stroke-width="2px" stroke-linejoin="round" style="">EfficientNet-B7</tspan><tspan x="5" y="16">EfficientNet-B7</tspan></text></g><g class="highcharts-label highcharts-data-label highcharts-data-label-color-undefined" data-z-index="1" transform="translate(382,-9999)" opacity="0"><text x="5" data-z-index="1" style="font-size:11px;font-weight:normal;color:#4a4a4a;fill:#4a4a4a;" y="16"><tspan x="5" y="16" class="highcharts-text-outline" fill="#FFFFFF" stroke="#FFFFFF" stroke-width="2px" stroke-linejoin="round" style="">AdvProp (EfficientNet-B8)</tspan><tspan x="5" y="16">AdvProp (EfficientNet-B8)</tspan></text></g><g class="highcharts-label highcharts-data-label highcharts-data-label-color-undefined" data-z-index="1" transform="translate(421,-9999)" opacity="0"><text x="5" data-z-index="1" style="font-size:11px;font-weight:normal;color:#4a4a4a;fill:#4a4a4a;" y="16"><tspan x="5" y="16" class="highcharts-text-outline" fill="#FFFFFF" stroke="#FFFFFF" stroke-width="2px" stroke-linejoin="round" style="">FixEfficientNet-B8</tspan><tspan x="5" y="16">FixEfficientNet-B8</tspan></text></g></g><text x="300" text-anchor="middle" class="highcharts-title" data-z-index="4" style="color:#333333;font-size:18px;fill:#333333;" y="24"></text><text x="300" text-anchor="middle" class="highcharts-subtitle" data-z-index="4" style="color:#666666;fill:#666666;" y="24"></text><text x="10" text-anchor="start" class="highcharts-caption" data-z-index="4" style="color:#666666;fill:#666666;" y="347"></text><g class="highcharts-legend" data-z-index="7" transform="translate(104,304)"><rect fill="#ffffff" class="highcharts-legend-box" rx="0" ry="0" x="0" y="0" width="391" height="31" visibility="visible"></rect><g data-z-index="1"><g><g class="highcharts-legend-item highcharts-scatter-series highcharts-color-undefined highcharts-series-0" data-z-index="1" transform="translate(8,3)"><path fill="none" d="M 0 13 L 16 13" class="highcharts-graph"></path><path fill="#ddd" d="M 8 17 A 4 4 0 1 1 8.003999999333336 16.99999800000017 Z" class="highcharts-point" opacity="1"></path><text x="21" style="color:#414141;cursor:pointer;font-size:14px;font-weight:normal;fill:#414141;" text-anchor="start" data-z-index="2" y="17"><tspan>Other models</tspan></text></g><g class="highcharts-legend-item highcharts-line-series highcharts-color-undefined highcharts-series-1" data-z-index="1" transform="translate(134.56666564941406,3)"><path fill="none" d="M 0 13 L 16 13" class="highcharts-graph" stroke="#21ccc7" stroke-width="2"></path><path fill="#21ccc7" d="M 8 17 A 4 4 0 1 1 8.003999999333336 16.99999800000017 Z" class="highcharts-point" opacity="1"></path><text x="21" y="17" style="color:#414141;cursor:pointer;font-size:14px;font-weight:normal;fill:#414141;" text-anchor="start" data-z-index="2"><tspan>Models with highest Top 5 Accuracy</tspan></text></g></g></g></g><g class="highcharts-axis-labels highcharts-xaxis-labels" data-z-index="7"><text x="131.56917746856" style="color:#666666;cursor:default;font-size:11px;fill:#666666;" text-anchor="middle" transform="translate(0,0)" y="288" opacity="1">2012</text><text x="238.71685435308" style="color:#666666;cursor:default;font-size:11px;fill:#666666;" text-anchor="middle" transform="translate(0,0)" y="288" opacity="1">2014</text><text x="345.71795438823" style="color:#666666;cursor:default;font-size:11px;fill:#666666;" text-anchor="middle" transform="translate(0,0)" y="288" opacity="1">2016</text><text x="452.86563127275" style="color:#666666;cursor:default;font-size:11px;fill:#666666;" text-anchor="middle" transform="translate(0,0)" y="288" opacity="1">2018</text><text x="559.86673130791" style="color:#666666;cursor:default;font-size:11px;fill:#666666;" text-anchor="middle" transform="translate(0,0)" y="288" opacity="1">2020</text></g><g class="highcharts-axis-labels highcharts-yaxis-labels" data-z-index="7"><text x="58" style="color:#666666;cursor:default;font-size:11px;fill:#666666;" text-anchor="end" transform="translate(0,0)" y="272" opacity="1">70</text><text x="58" style="color:#666666;cursor:default;font-size:11px;fill:#666666;" text-anchor="end" transform="translate(0,0)" y="186" opacity="1">80</text><text x="58" style="color:#666666;cursor:default;font-size:11px;fill:#666666;" text-anchor="end" transform="translate(0,0)" y="100" opacity="1">90</text><text x="58" style="color:#666666;cursor:default;font-size:11px;fill:#666666;" text-anchor="end" transform="translate(0,0)" y="13" opacity="1">100</text></g></svg>